<svg width="1200" height="900" viewBox="0 0 1200 900" fill="none" xmlns="http://www.w3.org/2000/svg">
  <rect width="1200" height="900" rx="40" fill="#080B12"/>
  <circle cx="250" cy="180" r="160" fill="#71CFFF" fill-opacity="0.18"/>
  <circle cx="980" cy="130" r="120" fill="#83F5CC" fill-opacity="0.14"/>
  <rect x="120" y="120" width="960" height="660" rx="28" fill="#0D121C" stroke="#9CD8FF" stroke-opacity="0.35"/>
  <rect x="160" y="170" width="560" height="460" rx="20" fill="#111827" stroke="#9CD8FF" stroke-opacity="0.2"/>
  <rect x="760" y="170" width="280" height="120" rx="16" fill="#111827" stroke="#83F5CC" stroke-opacity="0.3"/>
  <rect x="760" y="320" width="280" height="120" rx="16" fill="#111827" stroke="#9CD8FF" stroke-opacity="0.3"/>
  <rect x="760" y="470" width="280" height="120" rx="16" fill="#111827" stroke="#9CD8FF" stroke-opacity="0.3"/>
  <circle cx="440" cy="380" r="120" fill="#9CD8FF" fill-opacity="0.2"/>
  <circle cx="390" cy="355" r="14" fill="#EAF6FF"/>
  <circle cx="490" cy="355" r="14" fill="#EAF6FF"/>
  <path d="M360 435C385 470 495 470 520 435" stroke="#EAF6FF" stroke-width="14" stroke-linecap="round"/>
  <path d="M430 270L450 305H410L430 270Z" fill="#83F5CC" fill-opacity="0.8"/>
  <circle cx="300" cy="600" r="16" fill="#83F5CC"/>
  <circle cx="350" cy="600" r="16" fill="#9CD8FF"/>
  <circle cx="400" cy="600" r="16" fill="#83F5CC"/>
  <circle cx="450" cy="600" r="16" fill="#9CD8FF"/>
  <circle cx="500" cy="600" r="16" fill="#83F5CC"/>
  <path d="M770 242H970" stroke="#83F5CC" stroke-width="12" stroke-linecap="round"/>
  <path d="M770 392H930" stroke="#9CD8FF" stroke-width="12" stroke-linecap="round"/>
  <path d="M770 542H950" stroke="#9CD8FF" stroke-width="12" stroke-linecap="round"/>
</svg>